<?xml version="1.0" standalone="no"?>
<!DOCTYPE svg PUBLIC "-//W3C//DTD SVG 20010904//EN"
 "http://www.w3.org/TR/2001/REC-SVG-20010904/DTD/svg10.dtd">
<svg version="1.0" xmlns="http://www.w3.org/2000/svg"
 width="977.000000pt" height="527.000000pt" viewBox="0 0 977.000000 527.000000"
 preserveAspectRatio="xMidYMid meet">

<g transform="translate(0.000000,527.000000) scale(0.100000,-0.100000)"
fill="#000000" stroke="none">
<path d="M1791 4826 c-235 -276 -640 -468 -1132 -536 -84 -12 -157 -24 -161
-26 -4 -3 -8 -225 -8 -495 l0 -489 63 0 c179 0 558 22 672 39 72 11 186 33
254 51 68 17 125 29 127 28 2 -2 6 -682 10 -1511 l7 -1507 729 0 728 0 0 2265
0 2265 -609 0 -609 0 -71 -84z"/>
<path d="M4843 3043 l-83 -4 0 -544 0 -545 380 0 380 0 0 65 0 65 -312 2 -313
3 -3 176 -2 176 157 6 c87 4 213 7 281 7 l123 0 -3 58 -3 57 -275 5 -275 5 -3
173 -2 172 315 0 315 0 0 65 0 65 -297 -2 c-164 -1 -335 -4 -380 -5z"/>
<path d="M6053 3043 l-263 -3 0 -545 0 -545 318 1 c174 1 346 4 382 8 l65 6 3
58 3 57 -321 0 -320 0 0 180 0 180 83 1 c45 1 170 4 277 8 l195 6 3 58 3 57
-281 0 -280 0 0 175 0 175 315 0 316 0 -3 57 c-4 69 -9 72 -143 70 -49 -1
-208 -3 -352 -4z"/>
<path d="M6843 3043 l-23 -4 0 -538 0 -538 83 -6 c45 -4 205 -7 355 -7 l272 0
0 65 0 65 -285 0 -285 0 -1 458 c-1 251 -4 468 -8 482 -6 21 -13 25 -46 26
-22 1 -50 0 -62 -3z"/>
<path d="M3600 2496 l0 -546 65 0 65 0 0 220 0 220 153 0 153 0 144 -214 c122
-180 150 -215 174 -220 37 -8 136 -8 136 0 0 3 -67 105 -150 227 l-150 221 62
34 c98 54 126 80 159 148 82 166 28 339 -128 416 l-68 33 -307 3 -308 4 0
-546z m572 414 c44 -13 93 -51 113 -90 8 -15 17 -56 20 -91 6 -59 4 -67 -24
-111 -54 -85 -131 -106 -396 -109 l-150 -1 -3 206 -2 206 202 0 c112 0 220 -5
240 -10z"/>
<path d="M3696 1570 c-104 -41 -162 -131 -154 -239 8 -109 65 -156 269 -222
138 -44 183 -69 204 -109 52 -100 -39 -193 -185 -192 -85 0 -142 24 -209 87
-54 50 -65 51 -106 5 l-20 -22 60 -55 c78 -73 147 -104 250 -110 119 -8 184 9
244 63 64 57 85 110 79 198 -7 112 -67 166 -246 222 -139 44 -183 64 -211 100
-26 33 -28 100 -5 133 25 36 90 61 160 61 61 0 100 -14 201 -76 l33 -19 32 32
c37 37 40 30 -50 94 -95 68 -244 89 -346 49z"/>
<path d="M6982 1581 c-11 -6 -15 -95 -19 -435 l-6 -426 56 0 57 0 0 435 0 435
-37 0 c-21 0 -44 -4 -51 -9z"/>
<path d="M7589 1567 c-143 -60 -224 -170 -251 -339 -32 -209 59 -400 230 -481
61 -29 76 -32 162 -32 84 0 103 3 157 29 73 33 147 107 189 187 28 53 29 57
29 214 0 153 -1 163 -27 218 -35 74 -117 155 -193 192 -49 24 -76 29 -150 32
-77 3 -98 0 -146 -20z m258 -103 c58 -28 101 -76 135 -150 19 -42 23 -66 23
-164 0 -98 -4 -122 -22 -163 -55 -119 -137 -176 -254 -178 -83 -1 -140 23
-192 80 -51 56 -77 119 -87 212 -21 180 56 332 192 380 66 24 132 18 205 -17z"/>
<path d="M8510 1575 c-121 -38 -198 -180 -156 -290 29 -74 93 -116 276 -179
162 -57 200 -89 200 -172 0 -29 -8 -44 -37 -74 -90 -89 -269 -67 -373 46 l-41
45 -39 -28 c-22 -15 -40 -32 -40 -36 0 -17 97 -103 140 -124 126 -61 288 -69
375 -18 66 38 118 120 123 195 10 139 -52 194 -313 280 -113 37 -175 85 -175
135 0 81 73 137 179 137 67 0 130 -24 191 -73 l40 -33 30 29 c17 16 30 35 30
42 0 22 -102 90 -167 112 -73 24 -175 27 -243 6z"/>
<path d="M4353 1573 l-83 -4 0 -44 0 -45 125 0 125 0 0 -380 0 -380 55 0 55 0
0 380 0 380 131 0 130 0 -3 48 -3 47 -225 1 c-124 0 -262 -1 -307 -3z"/>
<path d="M5072 1245 l4 -335 40 -57 c73 -107 174 -151 326 -140 105 7 175 40
222 104 64 87 66 102 66 450 l0 313 -44 0 -43 0 -7 -61 c-3 -34 -6 -137 -6
-228 -1 -91 -5 -213 -9 -270 -11 -121 -22 -142 -101 -183 -97 -51 -231 -33
-292 40 -39 47 -47 104 -54 416 l-7 286 -50 0 -50 0 5 -335z"/>
<path d="M6020 1150 l0 -430 128 0 c162 0 280 14 337 39 63 28 156 120 191
188 28 56 29 63 29 203 0 135 -2 149 -25 195 -32 65 -122 156 -186 188 -61 31
-182 47 -351 47 l-123 0 0 -430z m432 297 c96 -56 148 -150 156 -278 6 -110
-13 -170 -75 -239 -69 -77 -121 -99 -264 -112 -66 -6 -123 -7 -127 -3 -4 3 -8
155 -10 337 l-3 331 139 -5 c128 -4 142 -6 184 -31z"/>
<path d="M4023 381 c-232 -3 -424 -9 -427 -12 -16 -15 481 -19 2664 -19 2290
0 2716 4 2640 22 -40 10 -4245 18 -4877 9z"/>
</g>
</svg>
