<svg version="1.1" id="Layer_1" xmlns="http://www.w3.org/2000/svg" xmlns:xlink="http://www.w3.org/1999/xlink" x="0px" y="0px"
	 width="100%" viewBox="0 0 850 372" enable-background="new 0 0 850 372" xml:space="preserve">
<path fill="#FFFFFF" opacity="1.000000" stroke="none" 
	d="
M512.000000,373.000000 
	C341.333344,373.000000 171.166672,373.000000 1.000000,373.000000 
	C1.000000,249.000000 1.000000,125.000000 1.000000,1.000000 
	C284.333344,1.000000 567.666687,1.000000 851.000000,1.000000 
	C851.000000,125.000000 851.000000,249.000000 851.000000,373.000000 
	C738.166687,373.000000 625.333313,373.000000 512.000000,373.000000 
M81.699402,278.759399 
	C93.667419,295.160095 109.889099,302.959198 130.102661,302.917694 
	C161.417358,302.853394 192.734528,303.099731 224.045288,302.743164 
	C230.907578,302.665039 238.103668,301.597656 244.533478,299.283752 
	C267.802551,290.909821 281.579712,270.391815 281.658478,244.957077 
	C281.761139,211.810333 281.687531,178.663025 281.671173,145.515961 
	C281.670624,144.397507 281.468903,143.279160 281.358490,142.135345 
	C211.367325,142.135345 141.638565,142.135345 71.777840,142.135345 
	C71.668053,142.993210 71.513962,143.635818 71.513878,144.278458 
	C71.509438,178.424820 71.477348,212.571259 71.547958,246.717484 
	C71.571609,258.157990 74.895584,268.659271 81.699402,278.759399 
M89.501526,129.029480 
	C110.009338,129.029480 130.517151,129.029480 151.786591,129.029480 
	C142.378906,112.686707 133.576569,97.267471 124.543785,81.984428 
	C123.923828,80.935501 121.497116,80.298149 120.052078,80.497025 
	C108.535126,82.082115 98.407303,86.854744 89.870796,94.742096 
	C79.940079,103.917648 73.993423,115.208244 72.065277,129.029480 
	C77.872925,129.029480 83.187630,129.029480 89.501526,129.029480 
M212.333664,98.198334 
	C217.581955,107.255524 222.965363,116.238564 227.999924,125.413040 
	C229.605881,128.339569 231.494568,129.144836 234.685165,129.104828 
	C248.677231,128.929382 262.672760,129.037247 276.666992,129.016678 
	C278.068024,129.014618 279.468781,128.838684 281.037781,128.732025 
	C279.448944,117.078705 274.775330,107.365005 267.387390,98.869781 
	C249.841339,78.693893 226.611282,78.666862 202.174759,80.386932 
	C205.610901,86.395813 208.800278,91.973160 212.333664,98.198334 
M191.039825,86.394165 
	C189.201096,81.200409 185.807343,79.315269 180.112183,79.780525 
	C172.667969,80.388672 165.136551,79.929512 157.642654,79.929512 
	C151.414047,79.929512 145.185440,79.929504 138.239288,79.929504 
	C139.329193,81.999290 139.962524,83.302544 140.683395,84.555412 
	C147.724792,96.793289 155.143845,108.833176 161.673538,121.337692 
	C164.759460,127.247284 168.245605,129.541122 175.037811,129.215118 
	C188.254990,128.580765 201.524155,129.029327 215.651657,129.029327 
	C207.295441,114.523720 199.371033,100.767670 191.039825,86.394165 
M377.873138,214.404724 
	C377.873138,215.843109 377.873138,217.281479 377.873138,218.724503 
	C381.459961,218.724503 384.527161,218.724503 388.003571,218.724503 
	C388.003571,211.700012 388.003571,204.955475 388.003571,198.250900 
	C398.508270,197.561996 399.046906,197.938583 402.247559,207.616348 
	C403.494598,211.387039 404.799225,215.138702 405.997131,218.662292 
	C409.504608,218.662292 412.702332,218.662292 416.402954,218.662292 
	C412.429962,210.244293 412.390869,200.626205 404.863007,194.294449 
	C405.453522,193.898453 405.974121,193.488220 406.547424,193.174316 
	C412.441803,189.947037 414.868073,185.275787 413.731232,179.302948 
	C412.594879,173.332764 408.535278,169.301910 402.002350,168.951889 
	C394.077850,168.527267 386.113220,168.851105 377.873138,168.851105 
	C377.873138,183.801270 377.873138,198.610580 377.873138,214.404724 
M661.755554,191.427414 
	C661.753296,197.140945 660.660828,203.119537 661.972229,208.513687 
	C664.838867,220.305145 676.992981,223.391708 685.966125,215.249695 
	C686.258606,214.984253 686.752625,214.940842 687.225769,214.767120 
	C687.564331,216.278534 687.867004,217.629929 688.119934,218.758987 
	C691.303406,218.758987 694.068604,218.758987 696.836670,218.758987 
	C696.836670,200.990311 696.836670,183.472717 696.836670,165.976990 
	C693.653381,165.976990 690.761841,165.976990 687.365967,165.976990 
	C687.365967,172.316650 687.365967,178.325546 687.365967,184.659286 
	C676.263977,176.953918 666.836609,179.360626 661.755554,191.427414 
M557.221436,219.315262 
	C560.696533,219.256851 564.231323,219.585617 567.634705,219.061646 
	C575.370911,217.870605 579.742615,212.845139 580.211792,205.268585 
	C580.702271,197.348434 577.334229,192.397354 569.537903,190.020187 
	C565.734314,188.860458 561.619019,188.533279 558.020081,186.966888 
	C555.995361,186.085648 553.376160,183.345276 553.506470,181.631134 
	C553.640747,179.864609 556.822144,176.915924 558.611023,176.958786 
	C563.630188,177.079025 568.618835,178.474503 574.497253,179.523621 
	C575.235168,178.506516 576.846741,176.285187 578.495789,174.012115 
	C571.399048,167.392960 563.395325,166.895142 555.178223,168.591919 
	C547.551514,170.166824 543.604797,175.024857 543.280090,181.976059 
	C542.970398,188.608109 546.967407,193.722733 554.453918,196.000702 
	C557.467346,196.917648 560.601013,197.431686 563.643311,198.263306 
	C567.403687,199.291214 570.745056,200.902039 569.958374,205.702164 
	C569.185852,210.415543 565.320923,211.705811 561.696594,210.808014 
	C556.646179,209.556946 551.915222,207.016144 546.407715,204.765900 
	C545.452148,205.935181 543.677368,208.106857 541.941833,210.230515 
	C545.570984,215.638779 548.952148,217.705902 557.221436,219.315262 
M480.802582,211.282333 
	C474.957977,209.835617 473.539856,208.035934 473.660919,201.857025 
	C481.725189,201.857025 489.799713,201.857025 497.817352,201.857025 
	C499.314026,189.268417 495.667480,182.716141 486.269623,180.678604 
	C476.061523,178.465393 466.943359,183.452576 464.164856,192.768784 
	C460.992889,203.404343 465.093323,214.530258 473.494720,217.980469 
	C482.207092,221.558380 494.614594,219.544754 497.678192,210.554596 
	C495.712982,209.279465 493.674713,207.956955 491.636444,206.634430 
	C491.709869,207.088516 491.783264,207.542618 491.856689,207.996704 
	C488.451996,209.147629 485.047302,210.298553 480.802582,211.282333 
M426.074097,186.660889 
	C420.950897,194.023483 420.689758,201.944611 424.023376,209.925507 
	C427.130096,217.363190 433.783173,219.682434 441.131805,219.659973 
	C447.678345,219.639984 453.558838,217.643005 456.497559,210.563950 
	C454.288666,209.166962 452.238708,207.870499 449.977539,206.440460 
	C446.698425,211.684174 442.086029,212.449753 437.141876,210.747604 
	C433.495819,209.492371 431.923828,206.360596 432.116302,201.875336 
	C440.410126,201.875336 448.628143,201.875336 456.778046,201.875336 
	C457.914703,185.877136 450.739349,177.995605 437.381744,180.659271 
	C433.553497,181.422668 430.129608,184.214020 426.074097,186.660889 
M747.095398,219.546326 
	C760.932190,217.443039 767.422852,205.484619 762.382874,191.534180 
	C759.654663,183.982529 753.851257,180.692612 746.354126,180.278992 
	C738.915344,179.868576 732.541321,182.306534 728.831360,189.315247 
	C721.064941,203.987228 729.680908,218.932404 747.095398,219.546326 
M349.430389,210.816727 
	C347.008209,210.816727 344.586029,210.816727 341.849243,210.816727 
	C341.849243,196.372482 341.849243,182.614304 341.849243,167.227798 
	C336.184937,168.987747 331.276794,170.453781 326.407837,172.039917 
	C319.711243,174.221420 319.723938,174.260345 321.084717,182.229797 
	C324.675629,181.258057 328.228760,180.296555 331.782104,179.334991 
	C331.782104,189.927887 331.782104,200.185257 331.782104,210.852066 
	C327.787781,210.852066 324.036621,210.852066 320.283203,210.852066 
	C320.283203,213.813416 320.283203,216.343307 320.283203,218.662201 
	C331.359528,218.662201 342.092957,218.662201 353.317230,218.662201 
	C351.718231,215.908127 355.467133,211.923096 349.430389,210.816727 
M651.169250,181.630615 
	C648.161926,181.340775 645.154602,181.050919 641.364990,180.685684 
	C641.364990,188.941406 641.730408,196.420685 641.243225,203.843979 
	C640.887756,209.258759 637.385376,211.942780 632.746155,211.517029 
	C627.463501,211.032257 627.176453,207.111969 627.159546,203.109833 
	C627.128845,195.836136 627.150818,188.562225 627.150818,181.210419 
	C623.778748,181.210419 620.880127,181.210419 618.001282,181.210419 
	C618.001282,190.612076 617.700745,199.753662 618.094971,208.865204 
	C618.419373,216.362564 623.899780,220.837341 631.283875,219.504349 
	C635.040100,218.826263 638.483276,216.414276 641.970215,214.830505 
	C642.047913,215.728195 642.182312,217.280365 642.309265,218.746582 
	C645.472168,218.746582 648.234802,218.746582 651.252625,218.746582 
	C651.252625,206.529037 651.252625,194.568268 651.169250,181.630615 
M773.942993,207.317184 
	C772.295776,209.089584 770.648560,210.861984 769.068726,212.561890 
	C774.242310,219.127945 784.490173,221.564072 792.430481,218.418900 
	C797.442688,216.433548 800.161011,212.437912 800.032959,207.298355 
	C799.898376,201.893417 796.868286,198.723434 791.999695,197.148102 
	C788.850403,196.129089 785.503357,195.662674 782.448059,194.440781 
	C781.256348,193.964157 779.828918,192.002655 779.958984,190.886520 
	C780.085815,189.799164 782.140869,188.034088 783.218140,188.124786 
	C786.826782,188.428635 790.376709,189.429260 794.650208,190.307083 
	C795.629822,189.204285 797.230286,187.402527 798.956421,185.459320 
	C792.990479,179.848587 786.308533,179.204987 779.176453,181.044861 
	C773.993286,182.381943 771.005371,186.029007 770.713867,190.857834 
	C770.393860,196.159882 772.822693,199.887650 778.198975,201.836166 
	C780.995728,202.849808 784.110413,203.104446 786.752808,204.381775 
	C788.369568,205.163300 789.362915,207.234329 790.636230,208.726257 
	C788.957275,209.798523 786.962708,212.063293 785.658691,211.718262 
	C781.825256,210.703949 778.265869,208.653595 773.942993,207.317184 
M598.563721,219.137756 
	C603.307068,220.359985 607.702942,219.690002 612.000916,216.793945 
	C611.111328,214.404388 610.283569,212.180923 609.469177,209.993210 
	C602.910217,211.957092 600.295654,211.234085 600.067566,207.132904 
	C599.727966,201.025192 599.979553,194.884598 599.979553,188.359802 
	C603.635437,188.359802 606.908569,188.359802 610.394775,188.359802 
	C610.394775,185.723877 610.394775,183.497696 610.394775,180.890961 
	C606.864380,180.890961 603.597046,180.890961 599.884521,180.890961 
	C599.884521,177.769836 599.884521,175.020355 599.884521,171.833008 
	C596.347229,172.450974 593.327209,172.978592 590.314941,173.504852 
	C590.140808,176.168152 589.992981,178.428055 589.842712,180.725708 
	C587.905151,180.873474 586.299561,180.995926 584.591003,181.126236 
	C584.591003,183.606262 584.591003,185.828552 584.591003,188.176651 
	C586.495911,188.383072 588.117310,188.558777 590.120117,188.775803 
	C590.120117,194.849991 590.000854,200.828613 590.155151,206.800171 
	C590.296814,212.283386 591.990723,216.968857 598.563721,219.137756 
M506.457062,171.762360 
	C506.540741,184.400772 506.280731,197.054047 506.826874,209.672440 
	C507.201782,218.334076 513.489868,221.679886 522.580627,218.170502 
	C521.678345,215.934906 521.038208,211.939728 519.811523,211.750671 
	C515.748535,211.124451 516.069031,208.640945 516.065979,205.974380 
	C516.050964,192.681305 516.059143,179.388184 516.059143,165.991348 
	C512.734802,165.991348 509.690521,165.991348 506.457092,165.991348 
	C506.457092,167.856003 506.457092,169.345856 506.457062,171.762360 
M717.647156,195.507126 
	C717.647156,190.734131 717.647156,185.961136 717.647156,181.146317 
	C714.160461,181.146317 711.239197,181.146317 708.306213,181.146317 
	C708.306213,193.893127 708.306213,206.410767 708.306213,218.694229 
	C711.549683,218.694229 714.461304,218.694229 717.647095,218.694229 
	C717.647095,211.082474 717.647095,203.793777 717.647156,195.507126 
M718.212524,169.130295 
	C716.027405,167.819122 713.909424,165.685562 711.632507,165.499786 
	C710.227234,165.385132 707.617920,168.069611 707.312805,169.807129 
	C707.009705,171.533066 708.407104,174.393723 709.951538,175.443802 
	C713.841248,178.088562 717.701965,175.340622 718.212524,169.130295 
z"/>
<path fill="#010101" opacity="1.000000" stroke="none" 
	d="
M81.478455,278.471527 
	C74.895584,268.659271 71.571609,258.157990 71.547958,246.717484 
	C71.477348,212.571259 71.509438,178.424820 71.513878,144.278458 
	C71.513962,143.635818 71.668053,142.993210 71.777840,142.135345 
	C141.638565,142.135345 211.367325,142.135345 281.358490,142.135345 
	C281.468903,143.279160 281.670624,144.397507 281.671173,145.515961 
	C281.687531,178.663025 281.761139,211.810333 281.658478,244.957077 
	C281.579712,270.391815 267.802551,290.909821 244.533478,299.283752 
	C238.103668,301.597656 230.907578,302.665039 224.045288,302.743164 
	C192.734528,303.099731 161.417358,302.853394 130.102661,302.917694 
	C109.889099,302.959198 93.667419,295.160095 81.478455,278.471527 
M166.425232,249.010483 
	C179.810516,241.291107 193.246674,233.658173 206.564087,225.823410 
	C216.189575,220.160645 216.317825,209.680756 206.747940,204.000931 
	C192.746201,195.690735 178.646606,187.537689 164.440536,179.582275 
	C154.881699,174.229324 145.985855,179.513657 145.927109,190.387222 
	C145.840729,206.371048 146.392700,222.375626 145.744919,238.333694 
	C145.222137,251.212433 157.991882,255.749054 166.425232,249.010483 
z"/>
<path fill="#030303" opacity="1.000000" stroke="none" 
	d="
M89.001930,129.029480 
	C83.187630,129.029480 77.872925,129.029480 72.065277,129.029480 
	C73.993423,115.208244 79.940079,103.917648 89.870796,94.742096 
	C98.407303,86.854744 108.535126,82.082115 120.052078,80.497025 
	C121.497116,80.298149 123.923828,80.935501 124.543785,81.984428 
	C133.576569,97.267471 142.378906,112.686707 151.786591,129.029480 
	C130.517151,129.029480 110.009338,129.029480 89.001930,129.029480 
z"/>
<path fill="#030303" opacity="1.000000" stroke="none" 
	d="
M212.161652,97.874420 
	C208.800278,91.973160 205.610901,86.395813 202.174759,80.386932 
	C226.611282,78.666862 249.841339,78.693893 267.387390,98.869781 
	C274.775330,107.365005 279.448944,117.078705 281.037781,128.732025 
	C279.468781,128.838684 278.068024,129.014618 276.666992,129.016678 
	C262.672760,129.037247 248.677231,128.929382 234.685165,129.104828 
	C231.494568,129.144836 229.605881,128.339569 227.999924,125.413040 
	C222.965363,116.238564 217.581955,107.255524 212.161652,97.874420 
z"/>
<path fill="#030303" opacity="1.000000" stroke="none" 
	d="
M191.243225,86.702896 
	C199.371033,100.767670 207.295441,114.523720 215.651657,129.029327 
	C201.524155,129.029327 188.254990,128.580765 175.037811,129.215118 
	C168.245605,129.541122 164.759460,127.247284 161.673538,121.337692 
	C155.143845,108.833176 147.724792,96.793289 140.683395,84.555412 
	C139.962524,83.302544 139.329193,81.999290 138.239288,79.929504 
	C145.185440,79.929504 151.414047,79.929512 157.642654,79.929512 
	C165.136551,79.929512 172.667969,80.388672 180.112183,79.780525 
	C185.807343,79.315269 189.201096,81.200409 191.243225,86.702896 
z"/>
<path fill="#060606" opacity="1.000000" stroke="none" 
	d="
M377.873138,213.912292 
	C377.873138,198.610580 377.873138,183.801270 377.873138,168.851105 
	C386.113220,168.851105 394.077850,168.527267 402.002350,168.951889 
	C408.535278,169.301910 412.594879,173.332764 413.731232,179.302948 
	C414.868073,185.275787 412.441803,189.947037 406.547424,193.174316 
	C405.974121,193.488220 405.453522,193.898453 404.863007,194.294449 
	C412.390869,200.626205 412.429962,210.244293 416.402954,218.662292 
	C412.702332,218.662292 409.504608,218.662292 405.997131,218.662292 
	C404.799225,215.138702 403.494598,211.387039 402.247559,207.616348 
	C399.046906,197.938583 398.508270,197.561996 388.003571,198.250900 
	C388.003571,204.955475 388.003571,211.700012 388.003571,218.724503 
	C384.527161,218.724503 381.459961,218.724503 377.873138,218.724503 
	C377.873138,217.281479 377.873138,215.843109 377.873138,213.912292 
M401.893402,188.587738 
	C404.592834,185.851196 405.064880,182.414230 403.013733,179.530258 
	C399.224976,174.203110 393.400543,177.080505 387.869995,176.180191 
	C387.869995,178.865280 387.869995,180.970840 387.869995,183.076401 
	C387.869995,185.324509 387.869995,187.572617 387.869995,190.527466 
	C392.749634,189.966568 396.958923,189.482727 401.893402,188.587738 
z"/>
<path fill="#050505" opacity="1.000000" stroke="none" 
	d="
M661.851135,191.042450 
	C666.836609,179.360626 676.263977,176.953918 687.365967,184.659286 
	C687.365967,178.325546 687.365967,172.316650 687.365967,165.976990 
	C690.761841,165.976990 693.653381,165.976990 696.836670,165.976990 
	C696.836670,183.472717 696.836670,200.990311 696.836670,218.758987 
	C694.068604,218.758987 691.303406,218.758987 688.119934,218.758987 
	C687.867004,217.629929 687.564331,216.278534 687.225769,214.767120 
	C686.752625,214.940842 686.258606,214.984253 685.966125,215.249695 
	C676.992981,223.391708 664.838867,220.305145 661.972229,208.513687 
	C660.660828,203.119537 661.753296,197.140945 661.851135,191.042450 
M684.199890,190.288544 
	C677.110107,186.446457 671.663696,188.900726 670.578247,196.711182 
	C670.199707,199.435318 670.500732,202.346603 671.002258,205.078629 
	C671.754211,209.174179 674.580444,211.376099 678.701355,211.465439 
	C682.815186,211.554611 685.803772,209.432327 686.800842,205.473724 
	C688.075378,200.413193 688.316223,195.297577 684.199890,190.288544 
z"/>
<path fill="#070707" opacity="1.000000" stroke="none" 
	d="
M556.803284,219.240967 
	C548.952148,217.705902 545.570984,215.638779 541.941833,210.230515 
	C543.677368,208.106857 545.452148,205.935181 546.407715,204.765900 
	C551.915222,207.016144 556.646179,209.556946 561.696594,210.808014 
	C565.320923,211.705811 569.185852,210.415543 569.958374,205.702164 
	C570.745056,200.902039 567.403687,199.291214 563.643311,198.263306 
	C560.601013,197.431686 557.467346,196.917648 554.453918,196.000702 
	C546.967407,193.722733 542.970398,188.608109 543.280090,181.976059 
	C543.604797,175.024857 547.551514,170.166824 555.178223,168.591919 
	C563.395325,166.895142 571.399048,167.392960 578.495789,174.012115 
	C576.846741,176.285187 575.235168,178.506516 574.497253,179.523621 
	C568.618835,178.474503 563.630188,177.079025 558.611023,176.958786 
	C556.822144,176.915924 553.640747,179.864609 553.506470,181.631134 
	C553.376160,183.345276 555.995361,186.085648 558.020081,186.966888 
	C561.619019,188.533279 565.734314,188.860458 569.537903,190.020187 
	C577.334229,192.397354 580.702271,197.348434 580.211792,205.268585 
	C579.742615,212.845139 575.370911,217.870605 567.634705,219.061646 
	C564.231323,219.585617 560.696533,219.256851 556.803284,219.240967 
z"/>
<path fill="#070707" opacity="1.000000" stroke="none" 
	d="
M481.222595,211.365906 
	C485.047302,210.298553 488.451996,209.147629 491.856689,207.996704 
	C491.783264,207.542618 491.709869,207.088516 491.636444,206.634430 
	C493.674713,207.956955 495.712982,209.279465 497.678192,210.554596 
	C494.614594,219.544754 482.207092,221.558380 473.494720,217.980469 
	C465.093323,214.530258 460.992889,203.404343 464.164856,192.768784 
	C466.943359,183.452576 476.061523,178.465393 486.269623,180.678604 
	C495.667480,182.716141 499.314026,189.268417 497.817352,201.857025 
	C489.799713,201.857025 481.725189,201.857025 473.660919,201.857025 
	C473.539856,208.035934 474.957977,209.835617 481.222595,211.365906 
M486.152435,195.962143 
	C488.683838,196.349609 489.463715,195.258377 488.764923,192.889297 
	C487.576050,188.858765 484.731659,187.452484 480.764557,187.829865 
	C476.007446,188.282349 473.949982,191.132599 473.547150,195.962265 
	C477.620667,195.962265 481.424164,195.962265 486.152435,195.962143 
z"/>
<path fill="#070707" opacity="1.000000" stroke="none" 
	d="
M426.297180,186.368195 
	C430.129608,184.214020 433.553497,181.422668 437.381744,180.659271 
	C450.739349,177.995605 457.914703,185.877136 456.778046,201.875336 
	C448.628143,201.875336 440.410126,201.875336 432.116302,201.875336 
	C431.923828,206.360596 433.495819,209.492371 437.141876,210.747604 
	C442.086029,212.449753 446.698425,211.684174 449.977539,206.440460 
	C452.238708,207.870499 454.288666,209.166962 456.497559,210.563950 
	C453.558838,217.643005 447.678345,219.639984 441.131805,219.659973 
	C433.783173,219.682434 427.130096,217.363190 424.023376,209.925507 
	C420.689758,201.944611 420.950897,194.023483 426.297180,186.368195 
M445.044128,195.962036 
	C446.931061,196.112991 448.280792,195.955948 447.606354,193.355255 
	C446.633820,189.605301 444.359039,187.772797 440.532776,187.738190 
	C435.661285,187.694122 433.401978,189.863693 432.284912,195.962250 
	C436.274414,195.962250 440.207275,195.962250 445.044128,195.962036 
z"/>
<path fill="#070707" opacity="1.000000" stroke="none" 
	d="
M746.681213,219.614746 
	C729.680908,218.932404 721.064941,203.987228 728.831360,189.315247 
	C732.541321,182.306534 738.915344,179.868576 746.354126,180.278992 
	C753.851257,180.692612 759.654663,183.982529 762.382874,191.534180 
	C767.422852,205.484619 760.932190,217.443039 746.681213,219.614746 
M737.591003,206.680038 
	C739.415894,210.901031 742.808838,211.766830 746.983276,211.207001 
	C751.196594,210.641953 753.032898,207.691391 753.484802,204.086319 
	C753.888611,200.865005 753.701599,197.458588 753.121216,194.252274 
	C752.344727,189.963364 748.867798,188.399612 744.959167,188.413422 
	C740.928101,188.427658 737.690247,190.519974 737.119385,194.658875 
	C736.609192,198.357788 737.127686,202.198578 737.591003,206.680038 
z"/>
<path fill="#050505" opacity="1.000000" stroke="none" 
	d="
M349.901703,210.817352 
	C355.467133,211.923096 351.718231,215.908127 353.317230,218.662201 
	C342.092957,218.662201 331.359528,218.662201 320.283203,218.662201 
	C320.283203,216.343307 320.283203,213.813416 320.283203,210.852066 
	C324.036621,210.852066 327.787781,210.852066 331.782104,210.852066 
	C331.782104,200.185257 331.782104,189.927887 331.782104,179.334991 
	C328.228760,180.296555 324.675629,181.258057 321.084717,182.229797 
	C319.723938,174.260345 319.711243,174.221420 326.407837,172.039917 
	C331.276794,170.453781 336.184937,168.987747 341.849243,167.227798 
	C341.849243,182.614304 341.849243,196.372482 341.849243,210.816727 
	C344.586029,210.816727 347.008209,210.816727 349.901703,210.817352 
z"/>
<path fill="#030303" opacity="1.000000" stroke="none" 
	d="
M651.210938,182.119049 
	C651.252625,194.568268 651.252625,206.529037 651.252625,218.746582 
	C648.234802,218.746582 645.472168,218.746582 642.309265,218.746582 
	C642.182312,217.280365 642.047913,215.728195 641.970215,214.830505 
	C638.483276,216.414276 635.040100,218.826263 631.283875,219.504349 
	C623.899780,220.837341 618.419373,216.362564 618.094971,208.865204 
	C617.700745,199.753662 618.001282,190.612076 618.001282,181.210419 
	C620.880127,181.210419 623.778748,181.210419 627.150818,181.210419 
	C627.150818,188.562225 627.128845,195.836136 627.159546,203.109833 
	C627.176453,207.111969 627.463501,211.032257 632.746155,211.517029 
	C637.385376,211.942780 640.887756,209.258759 641.243225,203.843979 
	C641.730408,196.420685 641.364990,188.941406 641.364990,180.685684 
	C645.154602,181.050919 648.161926,181.340775 651.210938,182.119049 
z"/>
<path fill="#090909" opacity="1.000000" stroke="none" 
	d="
M774.271118,207.163025 
	C778.265869,208.653595 781.825256,210.703949 785.658691,211.718262 
	C786.962708,212.063293 788.957275,209.798523 790.636230,208.726242 
	C789.362915,207.234329 788.369568,205.163300 786.752808,204.381775 
	C784.110413,203.104446 780.995728,202.849808 778.198975,201.836166 
	C772.822693,199.887650 770.393860,196.159882 770.713867,190.857834 
	C771.005371,186.029007 773.993286,182.381943 779.176453,181.044861 
	C786.308533,179.204987 792.990479,179.848587 798.956421,185.459320 
	C797.230286,187.402527 795.629822,189.204285 794.650208,190.307083 
	C790.376709,189.429260 786.826782,188.428635 783.218140,188.124786 
	C782.140869,188.034088 780.085815,189.799164 779.958984,190.886520 
	C779.828918,192.002655 781.256348,193.964157 782.448059,194.440781 
	C785.503357,195.662674 788.850403,196.129089 791.999695,197.148102 
	C796.868286,198.723434 799.898376,201.893417 800.032959,207.298355 
	C800.161011,212.437912 797.442688,216.433548 792.430481,218.418900 
	C784.490173,221.564072 774.242310,219.127945 769.068726,212.561890 
	C770.648560,210.861984 772.295776,209.089584 774.271118,207.163025 
z"/>
<path fill="#090909" opacity="1.000000" stroke="none" 
	d="
M598.174744,219.068161 
	C591.990723,216.968857 590.296814,212.283386 590.155151,206.800171 
	C590.000854,200.828613 590.120117,194.849991 590.120117,188.775803 
	C588.117310,188.558777 586.495911,188.383072 584.591003,188.176651 
	C584.591003,185.828552 584.591003,183.606262 584.591003,181.126236 
	C586.299561,180.995926 587.905151,180.873474 589.842712,180.725708 
	C589.992981,178.428055 590.140808,176.168152 590.314941,173.504852 
	C593.327209,172.978592 596.347229,172.450974 599.884521,171.833008 
	C599.884521,175.020355 599.884521,177.769836 599.884521,180.890961 
	C603.597046,180.890961 606.864380,180.890961 610.394775,180.890961 
	C610.394775,183.497696 610.394775,185.723877 610.394775,188.359802 
	C606.908569,188.359802 603.635437,188.359802 599.979553,188.359802 
	C599.979553,194.884598 599.727966,201.025192 600.067566,207.132904 
	C600.295654,211.234085 602.910217,211.957092 609.469177,209.993210 
	C610.283569,212.180923 611.111328,214.404388 612.000916,216.793945 
	C607.702942,219.690002 603.307068,220.359985 598.174744,219.068161 
z"/>
<path fill="#0C0C0C" opacity="1.000000" stroke="none" 
	d="
M506.457092,171.299042 
	C506.457092,169.345856 506.457092,167.856003 506.457092,165.991348 
	C509.690521,165.991348 512.734802,165.991348 516.059143,165.991348 
	C516.059143,179.388184 516.050964,192.681305 516.065979,205.974380 
	C516.069031,208.640945 515.748535,211.124451 519.811523,211.750671 
	C521.038208,211.939728 521.678345,215.934906 522.580627,218.170502 
	C513.489868,221.679886 507.201782,218.334076 506.826874,209.672440 
	C506.280731,197.054047 506.540741,184.400772 506.457092,171.299042 
z"/>
<path fill="#0B0B0B" opacity="1.000000" stroke="none" 
	d="
M717.647095,196.006104 
	C717.647095,203.793777 717.647095,211.082474 717.647095,218.694229 
	C714.461304,218.694229 711.549683,218.694229 708.306213,218.694229 
	C708.306213,206.410767 708.306213,193.893127 708.306213,181.146317 
	C711.239197,181.146317 714.160461,181.146317 717.647156,181.146317 
	C717.647156,185.961136 717.647156,190.734131 717.647095,196.006104 
z"/>
<path fill="#0B0B0B" opacity="1.000000" stroke="none" 
	d="
M718.320190,169.487671 
	C717.701965,175.340622 713.841248,178.088562 709.951538,175.443802 
	C708.407104,174.393723 707.009705,171.533066 707.312805,169.807129 
	C707.617920,168.069611 710.227234,165.385132 711.632507,165.499786 
	C713.909424,165.685562 716.027405,167.819122 718.320190,169.487671 
z"/>
<path fill="#FDFDFD" opacity="1.000000" stroke="none" 
	d="
M166.103333,249.211273 
	C157.991882,255.749054 145.222137,251.212433 145.744919,238.333694 
	C146.392700,222.375626 145.840729,206.371048 145.927109,190.387222 
	C145.985855,179.513657 154.881699,174.229324 164.440536,179.582275 
	C178.646606,187.537689 192.746201,195.690735 206.747940,204.000931 
	C216.317825,209.680756 216.189575,220.160645 206.564087,225.823410 
	C193.246674,233.658173 179.810516,241.291107 166.103333,249.211273 
z"/>
<path fill="#F7F7F7" opacity="1.000000" stroke="none" 
	d="
M401.530823,188.793304 
	C396.958923,189.482727 392.749634,189.966568 387.869995,190.527466 
	C387.869995,187.572617 387.869995,185.324509 387.869995,183.076401 
	C387.869995,180.970840 387.869995,178.865280 387.869995,176.180191 
	C393.400543,177.080505 399.224976,174.203110 403.013733,179.530258 
	C405.064880,182.414230 404.592834,185.851196 401.530823,188.793304 
z"/>
<path fill="#F9F9F9" opacity="1.000000" stroke="none" 
	d="
M684.482117,190.551392 
	C688.316223,195.297577 688.075378,200.413193 686.800842,205.473724 
	C685.803772,209.432327 682.815186,211.554611 678.701355,211.465439 
	C674.580444,211.376099 671.754211,209.174179 671.002258,205.078629 
	C670.500732,202.346603 670.199707,199.435318 670.578247,196.711182 
	C671.663696,188.900726 677.110107,186.446457 684.482117,190.551392 
z"/>
<path fill="#F7F7F7" opacity="1.000000" stroke="none" 
	d="
M485.690063,195.962204 
	C481.424164,195.962265 477.620667,195.962265 473.547150,195.962265 
	C473.949982,191.132599 476.007446,188.282349 480.764557,187.829865 
	C484.731659,187.452484 487.576050,188.858765 488.764923,192.889297 
	C489.463715,195.258377 488.683838,196.349609 485.690063,195.962204 
z"/>
<path fill="#F7F7F7" opacity="1.000000" stroke="none" 
	d="
M444.592133,195.962143 
	C440.207275,195.962250 436.274414,195.962250 432.284912,195.962250 
	C433.401978,189.863693 435.661285,187.694122 440.532776,187.738190 
	C444.359039,187.772797 446.633820,189.605301 447.606354,193.355255 
	C448.280792,195.955948 446.931061,196.112991 444.592133,195.962143 
z"/>
<path fill="#F8F8F8" opacity="1.000000" stroke="none" 
	d="
M737.391602,206.328400 
	C737.127686,202.198578 736.609192,198.357788 737.119385,194.658875 
	C737.690247,190.519974 740.928101,188.427658 744.959167,188.413422 
	C748.867798,188.399612 752.344727,189.963364 753.121216,194.252274 
	C753.701599,197.458588 753.888611,200.865005 753.484802,204.086319 
	C753.032898,207.691391 751.196594,210.641953 746.983276,211.207001 
	C742.808838,211.766830 739.415894,210.901031 737.391602,206.328400 
z"/>
</svg>