<?xml version="1.0" standalone="no"?>
<!DOCTYPE svg PUBLIC "-//W3C//DTD SVG 20010904//EN"
 "http://www.w3.org/TR/2001/REC-SVG-20010904/DTD/svg10.dtd">
<svg version="1.0" xmlns="http://www.w3.org/2000/svg"
 width="512.000000pt" height="512.000000pt" viewBox="0 0 512.000000 512.000000"
 preserveAspectRatio="xMidYMid meet">

<g transform="translate(0.000000,512.000000) scale(0.100000,-0.100000)"
fill="#000000" stroke="none">
<path d="M1615 5114 c-172 -15 -328 -47 -465 -98 -545 -200 -957 -653 -1094
-1202 -51 -206 -51 -210 -51 -1259 0 -1030 0 -1031 46 -1230 64 -282 237 -591
453 -808 271 -273 606 -441 991 -499 132 -19 2012 -19 2135 1 383 61 711 225
973 485 273 271 441 606 499 991 19 132 19 2012 -1 2135 -21 134 -47 237 -85
340 -197 538 -647 952 -1187 1090 -205 53 -186 52 -1214 55 -528 1 -978 1
-1000 -1z m2005 -169 c242 -38 435 -112 630 -240 375 -248 624 -634 695 -1080
22 -136 22 -1987 0 -2125 -38 -242 -112 -435 -240 -630 -248 -375 -634 -624
-1080 -695 -136 -22 -1987 -22 -2125 0 -242 38 -435 112 -630 240 -375 248
-624 634 -695 1080 -22 136 -22 1987 0 2125 38 242 112 435 240 630 219 331
545 564 935 666 154 41 184 42 1195 43 826 1 995 -1 1075 -14z"/>
<path d="M1284 4403 c-116 -128 -337 -269 -528 -337 l-61 -22 -3 -138 -3 -138
28 6 c73 18 346 112 413 142 41 19 92 48 113 65 l37 30 0 -1686 0 -1685 173 2
172 3 0 1915 0 1915 -135 3 -136 3 -70 -78z"/>
<path d="M2560 2561 l0 -1921 178 2 177 3 3 943 2 942 300 0 c232 0 302 -3
305 -12 16 -50 161 -536 250 -838 59 -201 153 -516 209 -700 l102 -335 173 -3
c162 -2 173 -1 169 15 -11 41 -158 532 -250 838 -284 938 -330 1094 -323 1104
2 5 25 14 51 20 218 55 373 249 434 545 54 258 42 570 -31 796 -71 217 -234
387 -439 455 -159 53 -204 56 -777 62 l-533 5 0 -1921z m1053 1634 c94 -16
190 -59 246 -110 55 -50 113 -170 142 -292 20 -84 23 -125 24 -283 0 -282 -42
-438 -149 -557 -63 -69 -126 -106 -233 -135 -70 -19 -110 -22 -400 -26 l-323
-4 0 711 0 711 308 0 c216 -1 330 -5 385 -15z"/>
</g>
</svg>
